<svg width="512" height="512" viewBox="0 0 512 512" fill="none" xmlns="http://www.w3.org/2000/svg">
<path d="M94.4664 392.965L90.9435 379.113C84.6973 376.473 78.3068 374.187 71.8024 372.266L71.3578 378.703L69.5544 371.611C61.4878 369.312 56 368.3 56 368.3C56 368.3 63.4109 396.404 78.9598 417.889L97.0758 421.062L83.002 423.086C84.9579 425.432 87.0598 427.653 89.2954 429.737C111.912 450.667 137.103 460.27 145.561 451.185C154.018 442.1 142.54 417.769 119.923 396.84C112.912 390.352 104.104 385.145 95.2875 381.045L94.4664 392.965Z" fill="#F2F2F2"/>
<path d="M127.969 377.919L132.135 364.245C128.157 358.767 123.872 353.516 119.3 348.519L115.582 353.801L117.715 346.8C112.001 340.677 107.827 336.983 107.827 336.983C107.827 336.983 99.6029 364.861 101.772 391.266L115.636 403.318L102.537 397.797C102.995 400.814 103.643 403.8 104.477 406.735C112.987 436.309 129.573 457.512 141.523 454.094C153.473 450.676 156.262 423.931 147.752 394.358C145.114 385.19 140.274 376.193 134.851 368.141L127.969 377.919Z" fill="#F2F2F2"/>
<path d="M335.118 150.76H332.921V90.7397C332.921 86.1776 332.019 81.6602 330.268 77.4454C328.517 73.2306 325.951 69.4009 322.715 66.175C319.48 62.9491 315.638 60.3902 311.411 58.6444C307.184 56.8986 302.653 56 298.077 56H170.53C161.289 56 152.427 59.6601 145.892 66.175C139.358 72.69 135.687 81.5261 135.687 90.7397V420.023C135.687 424.585 136.588 429.103 138.339 433.317C140.09 437.532 142.657 441.362 145.892 444.588C149.128 447.814 152.969 450.372 157.196 452.118C161.424 453.864 165.955 454.763 170.53 454.763H298.077C307.318 454.763 316.18 451.102 322.715 444.587C329.249 438.073 332.92 429.236 332.92 420.023V193.484H335.117L335.118 150.76Z" fill="#E6E6E6"/>
<path d="M299.483 65.0347H282.835C283.601 66.9063 283.893 68.9369 283.686 70.9477C283.479 72.9584 282.78 74.8876 281.649 76.5651C280.518 78.2427 278.99 79.6173 277.201 80.5676C275.412 81.518 273.416 82.0151 271.388 82.015H198.318C196.291 82.0149 194.295 81.5177 192.506 80.5673C190.717 79.6168 189.189 78.2423 188.059 76.5647C186.928 74.8871 186.228 72.9581 186.021 70.9474C185.814 68.9367 186.107 66.9062 186.872 65.0347H171.322C164.421 65.0347 157.802 67.768 152.923 72.6333C148.043 77.4986 145.301 84.0973 145.301 90.9779V419.783C145.301 426.664 148.043 433.262 152.923 438.128C157.802 442.993 164.421 445.726 171.322 445.726H299.483C306.384 445.726 313.003 442.993 317.883 438.128C322.762 433.262 325.504 426.664 325.504 419.783V419.783V90.9774C325.504 84.0969 322.762 77.4983 317.882 72.6331C313.003 67.7679 306.384 65.0347 299.483 65.0347V65.0347Z" fill="white"/>
<path d="M219.071 196.014C219.07 193.716 219.677 191.458 220.83 189.468C221.983 187.477 223.642 185.825 225.639 184.677C223.643 183.528 221.378 182.922 219.073 182.922C216.768 182.922 214.504 183.527 212.508 184.676C210.511 185.824 208.854 187.477 207.701 189.467C206.548 191.457 205.942 193.715 205.942 196.013C205.942 198.311 206.548 200.569 207.701 202.559C208.854 204.549 210.511 206.202 212.508 207.351C214.504 208.5 216.768 209.104 219.073 209.104C221.378 209.104 223.643 208.499 225.639 207.349C223.642 206.201 221.983 204.549 220.83 202.56C219.677 200.57 219.071 198.312 219.071 196.014V196.014Z" fill="#CCCCCC"/>
<path d="M235.578 196.014C235.577 193.716 236.184 191.458 237.337 189.467C238.49 187.477 240.148 185.825 242.146 184.677C240.15 183.528 237.885 182.922 235.58 182.922C233.275 182.922 231.011 183.527 229.014 184.676C227.018 185.824 225.36 187.477 224.208 189.467C223.055 191.457 222.448 193.715 222.448 196.013C222.448 198.311 223.055 200.569 224.208 202.559C225.36 204.549 227.018 206.202 229.014 207.351C231.011 208.5 233.275 209.104 235.58 209.104C237.885 209.104 240.15 208.499 242.146 207.349C240.149 206.201 238.49 204.549 237.337 202.56C236.184 200.57 235.577 198.312 235.578 196.014V196.014Z" fill="#CCCCCC"/>
<path d="M251.709 209.104C258.961 209.104 264.839 203.243 264.839 196.013C264.839 188.783 258.961 182.922 251.709 182.922C244.457 182.922 238.579 188.783 238.579 196.013C238.579 203.243 244.457 209.104 251.709 209.104Z" fill="#0099FF"/>
<path d="M273.653 236.902H197.127C196.399 236.901 195.7 236.612 195.185 236.098C194.67 235.585 194.38 234.888 194.379 234.162V157.865C194.38 157.138 194.67 156.442 195.185 155.928C195.7 155.415 196.399 155.126 197.127 155.125H273.653C274.381 155.126 275.08 155.415 275.595 155.928C276.11 156.442 276.4 157.138 276.401 157.865V234.162C276.4 234.888 276.11 235.585 275.595 236.098C275.08 236.612 274.381 236.901 273.653 236.902V236.902ZM197.127 156.222C196.69 156.222 196.271 156.395 195.962 156.703C195.653 157.012 195.479 157.429 195.478 157.865V234.163C195.479 234.598 195.653 235.016 195.962 235.324C196.271 235.633 196.69 235.806 197.127 235.806H273.653C274.09 235.806 274.509 235.633 274.818 235.324C275.127 235.016 275.301 234.598 275.301 234.163V157.865C275.301 157.429 275.127 157.012 274.818 156.703C274.509 156.395 274.09 156.222 273.653 156.222H197.127Z" fill="#CCCCCC"/>
<path d="M290.74 295.387H173.373V296.483H290.74V295.387Z" fill="#CCCCCC"/>
<path d="M177.079 288.545C179.126 288.545 180.786 286.89 180.786 284.849C180.786 282.808 179.126 281.154 177.079 281.154C175.032 281.154 173.373 282.808 173.373 284.849C173.373 286.89 175.032 288.545 177.079 288.545Z" fill="#0099FF"/>
<path d="M290.74 332.34H173.373V333.436H290.74V332.34Z" fill="#CCCCCC"/>
<path d="M177.079 325.498C179.126 325.498 180.786 323.843 180.786 321.802C180.786 319.761 179.126 318.107 177.079 318.107C175.032 318.107 173.373 319.761 173.373 321.802C173.373 323.843 175.032 325.498 177.079 325.498Z" fill="#0099FF"/>
<path d="M288.592 374.42H251.501C250.86 374.419 250.246 374.165 249.793 373.713C249.34 373.262 249.085 372.649 249.084 372.01V359.049C249.085 358.41 249.34 357.798 249.793 357.346C250.246 356.894 250.86 356.64 251.501 356.64H288.592C289.233 356.64 289.847 356.894 290.3 357.346C290.753 357.798 291.008 358.41 291.008 359.049V372.01C291.008 372.649 290.753 373.262 290.3 373.713C289.847 374.165 289.233 374.419 288.592 374.42V374.42Z" fill="#0099FF"/>
<path d="M189.17 288.545C191.217 288.545 192.876 286.89 192.876 284.849C192.876 282.808 191.217 281.154 189.17 281.154C187.123 281.154 185.463 282.808 185.463 284.849C185.463 286.89 187.123 288.545 189.17 288.545Z" fill="#0099FF"/>
<path d="M201.261 288.545C203.308 288.545 204.967 286.89 204.967 284.849C204.967 282.808 203.308 281.154 201.261 281.154C199.214 281.154 197.554 282.808 197.554 284.849C197.554 286.89 199.214 288.545 201.261 288.545Z" fill="#0099FF"/>
<path d="M189.17 325.498C191.217 325.498 192.876 323.843 192.876 321.802C192.876 319.761 191.217 318.107 189.17 318.107C187.123 318.107 185.463 319.761 185.463 321.802C185.463 323.843 187.123 325.498 189.17 325.498Z" fill="#0099FF"/>
<path d="M201.261 325.498C203.308 325.498 204.967 323.843 204.967 321.802C204.967 319.761 203.308 318.107 201.261 318.107C199.214 318.107 197.554 319.761 197.554 321.802C197.554 323.843 199.214 325.498 201.261 325.498Z" fill="#0099FF"/>
<path d="M359.244 318.067C359.508 318.188 359.761 318.329 360.002 318.489L384.089 308.239L384.948 301.913L394.573 301.855L394.004 316.364L362.212 324.746C362.145 324.966 362.065 325.182 361.972 325.393C361.512 326.371 360.773 327.191 359.847 327.752C358.921 328.312 357.85 328.587 356.768 328.543C355.686 328.498 354.641 328.135 353.765 327.501C352.888 326.866 352.22 325.987 351.843 324.975C351.466 323.962 351.397 322.861 351.646 321.81C351.894 320.759 352.449 319.805 353.239 319.067C354.03 318.329 355.022 317.84 356.09 317.662C357.159 317.485 358.256 317.626 359.244 318.067V318.067Z" fill="#FFB8B8"/>
<path d="M398.072 449.545H391.488L388.356 424.226L398.073 424.227L398.072 449.545Z" fill="#FFB8B8"/>
<path d="M386.786 447.669H399.483V455.64H378.791C378.791 453.526 379.633 451.499 381.133 450.004C382.632 448.509 384.665 447.669 386.786 447.669Z" fill="#2F2E41"/>
<path d="M423.678 447.69L417.125 448.334L411.518 423.443L421.189 422.493L423.678 447.69Z" fill="#FFB8B8"/>
<path d="M412.261 446.927L424.898 445.686L425.681 453.618L405.089 455.641C404.986 454.599 405.09 453.547 405.395 452.546C405.7 451.544 406.199 450.612 406.865 449.803C407.531 448.994 408.351 448.323 409.277 447.83C410.202 447.336 411.217 447.029 412.261 446.927Z" fill="#2F2E41"/>
<path d="M399.905 275.059C407.189 275.059 413.095 269.171 413.095 261.909C413.095 254.646 407.189 248.758 399.905 248.758C392.62 248.758 386.715 254.646 386.715 261.909C386.715 269.171 392.62 275.059 399.905 275.059Z" fill="#FFB8B8"/>
<path d="M390.017 444.425C389.451 444.426 388.903 444.228 388.47 443.866C388.036 443.504 387.744 443.001 387.646 442.445C384.239 423.585 373.1 361.915 372.833 360.207C372.827 360.168 372.824 360.128 372.825 360.088V355.49C372.824 355.323 372.877 355.159 372.975 355.023L374.446 352.968C374.516 352.869 374.608 352.788 374.714 352.73C374.821 352.672 374.939 352.639 375.06 352.634C383.45 352.241 410.925 351.092 412.252 352.746C413.585 354.407 413.115 359.442 413.006 360.434L413.012 360.538L425.355 439.242C425.452 439.87 425.297 440.51 424.923 441.025C424.55 441.539 423.989 441.886 423.36 441.991L415.651 443.258C415.077 443.35 414.488 443.233 413.993 442.929C413.498 442.625 413.128 442.154 412.952 441.602C410.567 434.005 402.572 408.45 399.801 398.561C399.783 398.498 399.744 398.444 399.689 398.409C399.635 398.373 399.569 398.358 399.505 398.367C399.44 398.377 399.381 398.409 399.339 398.458C399.296 398.507 399.273 398.57 399.274 398.635C399.413 408.062 399.747 432.112 399.863 440.418L399.875 441.313C399.88 441.918 399.657 442.504 399.25 442.954C398.843 443.403 398.282 443.684 397.677 443.741L390.243 444.415C390.167 444.422 390.092 444.425 390.017 444.425Z" fill="#2F2E41"/>
<path d="M391.534 280.23C389.232 281.594 387.855 284.101 387.065 286.652C385.601 291.375 384.72 296.258 384.442 301.194L383.606 315.972L373.266 355.148C382.228 362.709 387.398 360.991 399.462 354.806C411.526 348.622 412.905 356.868 412.905 356.868L415.317 323.534L418.764 287.108C417.991 286.179 417.115 285.34 416.154 284.605C412.968 282.135 409.261 280.419 405.313 279.584C401.365 278.75 397.278 278.82 393.361 279.789L391.534 280.23Z" fill="#0099FF"/>
<path d="M388.175 325.98C388.453 326.084 388.723 326.21 388.981 326.357L412.797 314.472L413.193 308.033L423.017 307.358L423.543 322.035L391.716 332.529C391.456 333.64 390.863 334.646 390.016 335.413C389.168 336.18 388.107 336.672 386.972 336.823C385.838 336.974 384.684 336.777 383.665 336.258C382.645 335.74 381.808 334.924 381.265 333.919C380.722 332.915 380.499 331.769 380.625 330.635C380.75 329.501 381.22 328.432 381.97 327.57C382.72 326.708 383.715 326.094 384.824 325.81C385.932 325.526 387.101 325.585 388.175 325.98Z" fill="#FFB8B8"/>
<path d="M418.592 287.275C424.451 289.337 425.484 311.676 425.484 311.676C418.59 307.896 410.317 314.082 410.317 314.082C410.317 314.082 408.594 308.239 406.526 300.679C405.901 298.552 405.827 296.303 406.309 294.139C406.791 291.976 407.814 289.97 409.283 288.307C409.283 288.307 412.732 285.211 418.592 287.275Z" fill="#0099FF"/>
<path d="M411.731 265.386C410.088 264.075 407.846 266.458 407.846 266.458L406.531 254.661C406.531 254.661 398.314 255.642 393.055 254.333C387.797 253.024 386.975 259.085 386.975 259.085C386.704 256.637 386.649 254.17 386.811 251.712C387.139 248.763 391.412 245.813 398.972 243.847C406.531 241.881 410.475 250.401 410.475 250.401C415.734 253.022 413.375 266.697 411.731 265.386Z" fill="#2F2E41"/>
</svg>
