<svg viewBox="0 0 512 512" fill="none" xmlns="http://www.w3.org/2000/svg">
<path d="M35.7573 281.864C32.5893 281.864 29.8053 281.36 27.4053 280.352C25.0053 279.296 23.0853 277.856 21.6453 276.032C20.2053 274.208 19.3413 272.096 19.0533 269.696H28.3413C28.6293 271.088 29.3973 272.288 30.6453 273.296C31.9413 274.256 33.5973 274.736 35.6133 274.736C37.6293 274.736 39.0933 274.328 40.0053 273.512C40.9653 272.696 41.4453 271.76 41.4453 270.704C41.4453 269.168 40.7733 268.136 39.4293 267.608C38.0853 267.032 36.2133 266.48 33.8133 265.952C32.2773 265.616 30.7173 265.208 29.1333 264.728C27.5493 264.248 26.0853 263.648 24.7413 262.928C23.4453 262.16 22.3893 261.2 21.5733 260.048C20.7573 258.848 20.3493 257.384 20.3493 255.656C20.3493 252.488 21.5973 249.824 24.0933 247.664C26.6373 245.504 30.1893 244.424 34.7493 244.424C38.9733 244.424 42.3333 245.408 44.8293 247.376C47.3733 249.344 48.8853 252.056 49.3653 255.512H40.6533C40.1253 252.872 38.1333 251.552 34.6773 251.552C32.9493 251.552 31.6053 251.888 30.6453 252.56C29.7333 253.232 29.2773 254.072 29.2773 255.08C29.2773 256.136 29.9733 256.976 31.3653 257.6C32.7573 258.224 34.6053 258.8 36.9093 259.328C39.4053 259.904 41.6853 260.552 43.7493 261.272C45.8613 261.944 47.5413 262.976 48.7893 264.368C50.0373 265.712 50.6613 267.656 50.6613 270.2C50.7093 272.408 50.1333 274.4 48.9333 276.176C47.7333 277.952 46.0053 279.344 43.7493 280.352C41.4933 281.36 38.8293 281.864 35.7573 281.864ZM73.8015 281.864C70.3455 281.864 67.2255 281.072 64.4415 279.488C61.7055 277.904 59.5215 275.72 57.8895 272.936C56.3055 270.104 55.5135 266.84 55.5135 263.144C55.5135 259.448 56.3295 256.208 57.9615 253.424C59.5935 250.592 61.7775 248.384 64.5135 246.8C67.2975 245.216 70.4175 244.424 73.8735 244.424C77.2815 244.424 80.3535 245.216 83.0895 246.8C85.8735 248.384 88.0575 250.592 89.6415 253.424C91.2735 256.208 92.0895 259.448 92.0895 263.144C92.0895 266.84 91.2735 270.104 89.6415 272.936C88.0575 275.72 85.8735 277.904 83.0895 279.488C80.3055 281.072 77.2095 281.864 73.8015 281.864ZM73.8015 273.872C76.2015 273.872 78.2895 272.984 80.0655 271.208C81.8415 269.384 82.7295 266.696 82.7295 263.144C82.7295 259.592 81.8415 256.928 80.0655 255.152C78.2895 253.328 76.2255 252.416 73.8735 252.416C71.4255 252.416 69.3135 253.328 67.5375 255.152C65.8095 256.928 64.9455 259.592 64.9455 263.144C64.9455 266.696 65.8095 269.384 67.5375 271.208C69.3135 272.984 71.4015 273.872 73.8015 273.872ZM115.666 281.864C112.018 281.864 108.802 281.072 106.018 279.488C103.234 277.904 101.026 275.696 99.3935 272.864C97.8095 270.032 97.0175 266.792 97.0175 263.144C97.0175 259.496 97.8095 256.256 99.3935 253.424C101.026 250.592 103.234 248.384 106.018 246.8C108.802 245.216 112.018 244.424 115.666 244.424C120.226 244.424 124.066 245.624 127.186 248.024C130.306 250.376 132.298 253.64 133.162 257.816H123.442C122.962 256.088 122.002 254.744 120.562 253.784C119.17 252.776 117.514 252.272 115.594 252.272C113.05 252.272 110.89 253.232 109.114 255.152C107.338 257.072 106.45 259.736 106.45 263.144C106.45 266.552 107.338 269.216 109.114 271.136C110.89 273.056 113.05 274.016 115.594 274.016C117.514 274.016 119.17 273.536 120.562 272.576C122.002 271.616 122.962 270.248 123.442 268.472H133.162C132.298 272.504 130.306 275.744 127.186 278.192C124.066 280.64 120.226 281.864 115.666 281.864ZM144.149 239.744C142.469 239.744 141.077 239.24 139.973 238.232C138.917 237.224 138.389 235.952 138.389 234.416C138.389 232.88 138.917 231.632 139.973 230.672C141.077 229.664 142.469 229.16 144.149 229.16C145.829 229.16 147.197 229.664 148.253 230.672C149.357 231.632 149.909 232.88 149.909 234.416C149.909 235.952 149.357 237.224 148.253 238.232C147.197 239.24 145.829 239.744 144.149 239.744ZM139.541 281V245.288H148.757V281H139.541ZM168.529 281.864C165.457 281.864 162.937 281.384 160.969 280.424C159.001 279.416 157.537 278.096 156.577 276.464C155.617 274.832 155.137 273.032 155.137 271.064C155.137 267.752 156.433 265.064 159.025 263C161.617 260.936 165.505 259.904 170.689 259.904H179.761V259.04C179.761 256.592 179.065 254.792 177.673 253.64C176.281 252.488 174.553 251.912 172.489 251.912C170.617 251.912 168.985 252.368 167.593 253.28C166.201 254.144 165.337 255.44 165.001 257.168H156.001C156.241 254.576 157.105 252.32 158.593 250.4C160.129 248.48 162.097 247.016 164.497 246.008C166.897 244.952 169.585 244.424 172.561 244.424C177.649 244.424 181.657 245.696 184.585 248.24C187.513 250.784 188.977 254.384 188.977 259.04V281H181.129L180.265 275.24C179.209 277.16 177.721 278.744 175.801 279.992C173.929 281.24 171.505 281.864 168.529 281.864ZM170.617 274.664C173.257 274.664 175.297 273.8 176.737 272.072C178.225 270.344 179.161 268.208 179.545 265.664H171.697C169.249 265.664 167.497 266.12 166.441 267.032C165.385 267.896 164.857 268.976 164.857 270.272C164.857 271.664 165.385 272.744 166.441 273.512C167.497 274.28 168.889 274.664 170.617 274.664ZM195.611 281V229.16H204.827V281H195.611ZM487.026 281.504C485.346 281.504 483.954 280.976 482.85 279.92C481.794 278.864 481.266 277.592 481.266 276.104C481.266 274.568 481.794 273.272 482.85 272.216C483.954 271.16 485.346 270.632 487.026 270.632C488.706 270.632 490.074 271.16 491.13 272.216C492.234 273.272 492.786 274.568 492.786 276.104C492.786 277.592 492.234 278.864 491.13 279.92C490.074 280.976 488.706 281.504 487.026 281.504Z" fill="#0099FF"/>
<path d="M212.084 281V245.288H220.22L220.94 251.336C222.044 249.224 223.628 247.544 225.692 246.296C227.804 245.048 230.276 244.424 233.108 244.424C237.524 244.424 240.956 245.816 243.404 248.6C245.852 251.384 247.076 255.464 247.076 260.84V281H237.86V261.704C237.86 258.632 237.236 256.28 235.988 254.648C234.74 253.016 232.796 252.2 230.156 252.2C227.564 252.2 225.428 253.112 223.748 254.936C222.116 256.76 221.3 259.304 221.3 262.568V281H212.084ZM271.081 281.864C267.481 281.864 264.289 281.096 261.505 279.56C258.721 278.024 256.537 275.864 254.953 273.08C253.369 270.296 252.577 267.08 252.577 263.432C252.577 259.736 253.345 256.448 254.881 253.568C256.465 250.688 258.625 248.456 261.361 246.872C264.145 245.24 267.409 244.424 271.153 244.424C274.657 244.424 277.753 245.192 280.441 246.728C283.129 248.264 285.217 250.376 286.705 253.064C288.241 255.704 289.009 258.656 289.009 261.92C289.009 262.448 288.985 263 288.937 263.576C288.937 264.152 288.913 264.752 288.865 265.376H261.721C261.913 268.16 262.873 270.344 264.601 271.928C266.377 273.512 268.513 274.304 271.009 274.304C272.881 274.304 274.441 273.896 275.689 273.08C276.985 272.216 277.945 271.112 278.569 269.768H287.929C287.257 272.024 286.129 274.088 284.545 275.96C283.009 277.784 281.089 279.224 278.785 280.28C276.529 281.336 273.961 281.864 271.081 281.864ZM271.153 251.912C268.897 251.912 266.905 252.56 265.177 253.856C263.449 255.104 262.345 257.024 261.865 259.616H279.649C279.505 257.264 278.641 255.392 277.057 254C275.473 252.608 273.505 251.912 271.153 251.912ZM309.879 281C306.135 281 303.135 280.088 300.879 278.264C298.623 276.44 297.495 273.2 297.495 268.544V252.992H291.375V245.288H297.495L298.575 235.712H306.711V245.288H316.359V252.992H306.711V268.616C306.711 270.344 307.071 271.544 307.791 272.216C308.559 272.84 309.855 273.152 311.679 273.152H316.143V281H309.879ZM329.096 281L318.656 245.288H327.8L333.992 270.992L341.192 245.288H351.416L358.616 270.992L364.88 245.288H374.024L363.512 281H353.936L346.304 254.288L338.672 281H329.096ZM393.549 281.864C390.093 281.864 386.973 281.072 384.189 279.488C381.453 277.904 379.269 275.72 377.637 272.936C376.053 270.104 375.261 266.84 375.261 263.144C375.261 259.448 376.077 256.208 377.709 253.424C379.341 250.592 381.525 248.384 384.261 246.8C387.045 245.216 390.165 244.424 393.621 244.424C397.029 244.424 400.101 245.216 402.837 246.8C405.621 248.384 407.805 250.592 409.389 253.424C411.021 256.208 411.837 259.448 411.837 263.144C411.837 266.84 411.021 270.104 409.389 272.936C407.805 275.72 405.621 277.904 402.837 279.488C400.053 281.072 396.957 281.864 393.549 281.864ZM393.549 273.872C395.949 273.872 398.037 272.984 399.813 271.208C401.589 269.384 402.477 266.696 402.477 263.144C402.477 259.592 401.589 256.928 399.813 255.152C398.037 253.328 395.973 252.416 393.621 252.416C391.173 252.416 389.061 253.328 387.285 255.152C385.557 256.928 384.693 259.592 384.693 263.144C384.693 266.696 385.557 269.384 387.285 271.208C389.061 272.984 391.149 273.872 393.549 273.872ZM417.917 281V245.288H426.125L426.989 251.984C428.285 249.68 430.037 247.856 432.245 246.512C434.501 245.12 437.141 244.424 440.165 244.424V254.144H437.573C435.557 254.144 433.757 254.456 432.173 255.08C430.589 255.704 429.341 256.784 428.429 258.32C427.565 259.856 427.133 261.992 427.133 264.728V281H417.917ZM444.304 281V229.16H453.52V259.76L466.192 245.288H477.136L462.52 261.56L479.512 281H467.992L453.52 263.072V281H444.304Z" fill="#161A3A"/>
</svg>
